o NaturePack Rock3
usemtl Rock1SG
v -0.03811688205852537 -0.10524500161409378 -0.5651390327792498
v -0.2458700635160449 0.2984110116958618 -0.16304872172883478
v 0.15312676647052736 0.2873919904232025 -0.4181508793216082
v -0.2458700635160449 0.2984110116958618 -0.16304872172883478
v -0.3798150517667773 -0.09200499951839447 -0.06602571147492853
v -0.17263407489910154 0.27699199318885803 0.22151186329313788
v -0.03374523899211912 -0.11327999830245972 0.42634394031950507
v 0.5162420771394727 -0.09241600334644318 0.2172270045895246
v 0.36921982982501955 0.28819000720977783 0.19208719593473944
v -0.3798150517667773 -0.09200499951839447 -0.06602571147492853
v -0.03811688205852537 -0.10524500161409378 -0.5651390327792498
v 0.12475877025470705 -0.1831520050764084 -0.07429502147248712
v -0.3798150517667773 -0.09200499951839447 -0.06602571147492853
v -0.2458700635160449 0.2984110116958618 -0.16304872172883478
v -0.03811688205852537 -0.10524500161409378 -0.5651390327792498
v 0.5162420771394727 -0.09241600334644318 0.2172270045895246
v 0.5483861468111035 -0.11515499651432037 -0.37152574199250665
v 0.6101050875459668 0.1513880044221878 -0.09341714519074884
v -0.03374523899211912 -0.11327999830245972 0.42634394031950507
v -0.3798150517667773 -0.09200499951839447 -0.06602571147492853
v 0.12475877025470705 -0.1831520050764084 -0.07429502147248712
v 0.5483861468111035 -0.11515499651432037 -0.37152574199250665
v -0.03811688205852537 -0.10524500161409378 -0.5651390327792498
v 0.15312676647052736 0.2873919904232025 -0.4181508793216082
v -0.03374523899211912 -0.11327999830245972 0.42634394031950507
v -0.17263407489910154 0.27699199318885803 0.22151186329313788
v -0.3798150517667773 -0.09200499951839447 -0.06602571147492853
v -0.03811688205852537 -0.10524500161409378 -0.5651390327792498
v 0.5483861468111035 -0.11515499651432037 -0.37152574199250665
v 0.12475877025470705 -0.1831520050764084 -0.07429502147248712
v 0.6101050875459668 0.1513880044221878 -0.09341714519074884
v 0.5483861468111035 -0.11515499651432037 -0.37152574199250665
v 0.15312676647052736 0.2873919904232025 -0.4181508793216082
v 0.36921982982501955 0.28819000720977783 0.19208719593473944
v 0.6101050875459668 0.1513880044221878 -0.09341714519074884
v 0.15312676647052736 0.2873919904232025 -0.4181508793216082
v 0.009302189138984396 0.1789339929819107 0.32689907413908514
v -0.03374523899211912 -0.11327999830245972 0.42634394031950507
v 0.36921982982501955 0.28819000720977783 0.19208719593473944
v 0.009302189138984396 0.1789339929819107 0.32689907413908514
v 0.36921982982501955 0.28819000720977783 0.19208719593473944
v -0.17263407489910154 0.27699199318885803 0.22151186329313788
v 0.5162420771394727 -0.09241600334644318 0.2172270045895246
v -0.03374523899211912 -0.11327999830245972 0.42634394031950507
v 0.12475877025470705 -0.1831520050764084 -0.07429502147248712
v 0.5483861468111035 -0.11515499651432037 -0.37152574199250665
v 0.5162420771394727 -0.09241600334644318 0.2172270045895246
v 0.12475877025470705 -0.1831520050764084 -0.07429502147248712
v -0.17263407489910154 0.27699199318885803 0.22151186329313788
v -0.03374523899211912 -0.11327999830245972 0.42634394031950507
v 0.009302189138984396 0.1789339929819107 0.32689907413908514
v 0.5162420771394727 -0.09241600334644318 0.2172270045895246
v 0.6101050875459668 0.1513880044221878 -0.09341714519074884
v 0.36921982982501955 0.28819000720977783 0.19208719593473944
v -0.17263407489910154 0.27699199318885803 0.22151186329313788
v 0.15312676647052736 0.2873919904232025 -0.4181508793216082
v -0.2458700635160449 0.2984110116958618 -0.16304872172883478
v 0.15312676647052736 0.2873919904232025 -0.4181508793216082
v -0.17263407489910154 0.27699199318885803 0.22151186329313788
v 0.36921982982501955 0.28819000720977783 0.19208719593473944
vt 0.6361389756202698 0.7526640295982361
vt 0.44433900713920593 0.8513799905776978
vt 0.4495750069618225 0.6617940068244934
vt 0.19661499559879303 0.2809329926967621
vt 0.011106999590992928 0.2348320037126541
vt 0.18643799424171448 0.09820699691772461
vt 0.24943900108337402 0.7353140115737915
vt 0.25935301184654236 0.4739840030670166
vt 0.44020000100135803 0.5438420176506042
vt 0.20193299651145935 0.23803600668907166
vt 0.36429399251937866 0.0008800000068731606
vt 0.4416849911212921 0.23410700261592865
vt 0.011106999590992928 0.2348320037126541
vt 0.19661499559879303 0.2809329926967621
vt 0.004815999884158373 0.4719890058040619
vt 0.06445199996232986 0.7758880257606506
vt 0.053647998720407486 0.4961389899253845
vt 0.18029700219631195 0.6282839775085449
vt 0.3663710057735443 0.4719890058040619
vt 0.20193299651145935 0.23803600668907166
vt 0.4416849911212921 0.23410700261592865
vt 0.6408479809761047 0.4739840030670166
vt 0.6361389756202698 0.7526640295982361
vt 0.4495750069618225 0.6617940068244934
vt 0.0009980000322684646 0.0008800000068731606
vt 0.18643799424171448 0.09820699691772461
vt 0.011106999590992928 0.2348320037126541
vt 0.36429399251937866 0.0008800000068731606
vt 0.6429740190505981 0.09287600219249725
vt 0.4416849911212921 0.23410700261592865
vt 0.18029700219631195 0.6282839775085449
vt 0.053647998720407486 0.4961389899253845
vt 0.24492000043392181 0.4739840030670166
vt 0.7090439796447754 0.5884420275688171
vt 0.8447030186653137 0.4739840030670166
vt 0.9990019798278809 0.6911200284957886
vt 0.3882859945297241 0.7148590087890625
vt 0.24943900108337402 0.7353140115737915
vt 0.44020000100135803 0.5438420176506042
vt 0.6449869871139526 0.7594590187072754
vt 0.7090439796447754 0.5884420275688171
vt 0.6950629949569702 0.8459069728851318
vt 0.6276999711990356 0.37262600660324097
vt 0.3663710057735443 0.4719890058040619
vt 0.4416849911212921 0.23410700261592865
vt 0.6429740190505981 0.09287600219249725
vt 0.6276999711990356 0.37262600660324097
vt 0.4416849911212921 0.23410700261592865
vt 0.43487900495529175 0.8013070225715637
vt 0.24943900108337402 0.7353140115737915
vt 0.3882859945297241 0.7148590087890625
vt 0.06445199996232986 0.7758880257606506
vt 0.18029700219631195 0.6282839775085449
vt 0.24529899656772614 0.7639420032501221
vt 0.6950629949569702 0.8459069728851318
vt 0.9990019798278809 0.6911200284957886
vt 0.8777890205383301 0.8807060122489929
vt 0.9990019798278809 0.6911200284957886
vt 0.6950629949569702 0.8459069728851318
vt 0.7090439796447754 0.5884420275688171
vn -0.4571790971817804 0.4984270987629493 -0.736585161620027
vn -0.4571790971817804 0.4984270987629493 -0.736585161620027
vn -0.4571790971817804 0.4984270987629493 -0.736585161620027
vn -0.9121558124031386 0.36111392665470077 0.1938259680104647
vn -0.9121558124031386 0.36111392665470077 0.1938259680104647
vn -0.9121558124031386 0.36111392665470077 0.1938259680104647
vn 0.34231311649004326 0.19297107642889583 0.9195563571313871
vn 0.34231311649004326 0.19297107642889583 0.9195563571313871
vn 0.34231311649004326 0.19297107642889583 0.9195563571313871
vn -0.17846693188621027 -0.9792316093614484 -0.09620295967646003
vn -0.17846693188621027 -0.9792316093614484 -0.09620295967646003
vn -0.17846693188621027 -0.9792316093614484 -0.09620295967646003
vn -0.8152814283513421 0.1400789105348769 -0.5618666135380865
vn -0.8152814283513421 0.1400789105348769 -0.5618666135380865
vn -0.8152814283513421 0.1400789105348769 -0.5618666135380865
vn 0.9557395199453809 -0.28732885151562115 0.06327796694969788
vn 0.9557395199453809 -0.28732885151562115 0.06327796694969788
vn 0.9557395199453809 -0.28732885151562115 0.06327796694969788
vn -0.175887969525707 -0.9810528140487162 0.08123298728484003
vn -0.175887969525707 -0.9810528140487162 0.08123298728484003
vn -0.175887969525707 -0.9810528140487162 0.08123298728484003
vn 0.31033292933896417 0.19699495156539484 -0.9299927214906819
vn 0.31033292933896417 0.19699495156539484 -0.9299927214906819
vn 0.31033292933896417 0.19699495156539484 -0.9299927214906819
vn -0.8178587696460438 0.010894996850569364 0.5753158540807698
vn -0.8178587696460438 0.010894996850569364 0.5753158540807698
vn -0.8178587696460438 0.010894996850569364 0.5753158540807698
vn 0.03925999954121642 -0.9847769624556963 -0.16933099731754878
vn 0.03925999954121642 -0.9847769624556963 -0.16933099731754878
vn 0.03925999954121642 -0.9847769624556963 -0.16933099731754878
vn 0.5937601196519382 0.5110190827607723 -0.6215371407770055
vn 0.5937601196519382 0.5110190827607723 -0.6215371407770055
vn 0.5937601196519382 0.5110190827607723 -0.6215371407770055
vn 0.3673280170737591 0.9207800755796106 -0.13127901693822447
vn 0.3673280170737591 0.9207800755796106 -0.13127901693822447
vn 0.3673280170737591 0.9207800755796106 -0.13127901693822447
vn 0.26255209579275485 0.2759781068827928 0.9246093669849025
vn 0.26255209579275485 0.2759781068827928 0.9246093669849025
vn 0.26255209579275485 0.2759781068827928 0.9246093669849025
vn 0.020458996349797615 0.7493218626978666 0.6618898515246768
vn 0.020458996349797615 0.7493218626978666 0.6618898515246768
vn 0.020458996349797615 0.7493218626978666 0.6618898515246768
vn 0.10142695036117101 -0.9803935618204829 0.1689409295623162
vn 0.10142695036117101 -0.9803935618204829 0.1689409295623162
vn 0.10142695036117101 -0.9803935618204829 0.1689409295623162
vn 0.19125000141734322 -0.9803520100983084 0.048305002371103405
vn 0.19125000141734322 -0.9803520100983084 0.048305002371103405
vn 0.19125000141734322 -0.9803520100983084 0.048305002371103405
vn -0.32288113701902715 0.34719513264781304 0.8804563085258506
vn -0.32288113701902715 0.34719513264781304 0.8804563085258506
vn -0.32288113701902715 0.34719513264781304 0.8804563085258506
vn 0.7927635503211575 0.33966280280097205 0.5061177073325748
vn 0.7927635503211575 0.33966280280097205 0.5061177073325748
vn 0.7927635503211575 0.33966280280097205 0.5061177073325748
vn 0.05621699306386299 0.9974108915671511 0.04484599284304565
vn 0.05621699306386299 0.9974108915671511 0.04484599284304565
vn 0.05621699306386299 0.9974108915671511 0.04484599284304565
vn -0.020340993681897776 0.9997757154371985 0.005895998479531377
vn -0.020340993681897776 0.9997757154371985 0.005895998479531377
vn -0.020340993681897776 0.9997757154371985 0.005895998479531377
f 1/1/1 2/2/2 3/3/3
f 4/4/4 5/5/5 6/6/6
f 7/7/7 8/8/8 9/9/9
f 10/10/10 11/11/11 12/12/12
f 13/13/13 14/14/14 15/15/15
f 16/16/16 17/17/17 18/18/18
f 19/19/19 20/20/20 21/21/21
f 22/22/22 23/23/23 24/24/24
f 25/25/25 26/26/26 27/27/27
f 28/28/28 29/29/29 30/30/30
f 31/31/31 32/32/32 33/33/33
f 34/34/34 35/35/35 36/36/36
f 37/37/37 38/38/38 39/39/39
f 40/40/40 41/41/41 42/42/42
f 43/43/43 44/44/44 45/45/45
f 46/46/46 47/47/47 48/48/48
f 49/49/49 50/50/50 51/51/51
f 52/52/52 53/53/53 54/54/54
f 55/55/55 56/56/56 57/57/57
f 58/58/58 59/59/59 60/60/60
