o NaturePack Rock1
usemtl Rock1SG
v 0.5765301749883573 0.6857650279998779 -1.6248385499261104
v 1.310660080689041 -0.775160014629364 -1.0970975349686825
v -0.33126287005558797 -0.7774180173873901 -1.6234055499575817
v -0.058473868590744216 -0.47000300884246826 0.5736455132223881
v 0.13793106533869914 -0.05148899927735329 1.1370314766623295
v -0.6726808979333956 -0.04551500082015991 0.8673583676077641
v 1.310660080689041 -0.775160014629364 -1.0970975349686825
v 1.5487830207525175 0.6578760147094727 -0.21984358532650106
v 1.3135330245672148 -0.7774140238761902 0.6168333698965824
v 0.5775610969243925 0.7083410024642944 1.175543468163184
v -0.9780238702119906 0.6341149806976318 0.592460553810767
v -0.6726808979333956 -0.04551500082015991 0.8673583676077641
v -1.1674218609155733 -0.015484999865293503 0.13038043277042277
v -0.058473868590744216 -0.47000300884246826 0.5736455132223881
v -0.6726808979333956 -0.04551500082015991 0.8673583676077641
v 1.5487830207525175 0.6578760147094727 -0.21984358532650106
v 0.5765301749883573 0.6857650279998779 -1.6248385499261104
v 0.12109513737544231 0.9012659788131714 -0.23626454575283162
v 1.5487830207525175 0.6578760147094727 -0.21984358532650106
v 1.310660080689041 -0.775160014629364 -1.0970975349686825
v 0.5765301749883573 0.6857650279998779 -1.6248385499261104
v -0.9780238702119906 0.6341149806976318 0.592460553810767
v -1.057040913325699 0.6809399724006653 -0.23463757736904256
v -1.1674218609155733 -0.015484999865293503 0.13038043277042277
v 0.5775610969243925 0.7083410024642944 1.175543468163184
v 1.5487830207525175 0.6578760147094727 -0.21984358532650106
v 0.12109513737544231 0.9012659788131714 -0.23626454575283162
v -1.0591778590501864 0.6809830069541931 -1.0918245504639827
v 0.5765301749883573 0.6857650279998779 -1.6248385499261104
v -0.33126287005558797 -0.7774180173873901 -1.6234055499575817
v 0.5775610969243925 0.7083410024642944 1.175543468163184
v 1.3135330245672148 -0.7774140238761902 0.6168333698965824
v 1.5487830207525175 0.6578760147094727 -0.21984358532650106
v 0.5765301749883573 0.6857650279998779 -1.6248385499261104
v -1.0591778590501864 0.6809830069541931 -1.0918245504639827
v 0.12109513737544231 0.9012659788131714 -0.23626454575283162
v -1.1943918897928316 -0.050554998219013214 -0.6634235571168148
v -1.0591778590501864 0.6809830069541931 -1.0918245504639827
v -0.33126287005558797 -0.7774180173873901 -1.6234055499575817
v -0.058473868590744216 -0.47000300884246826 0.5736455132223881
v -1.1674218609155733 -0.015484999865293503 0.13038043277042277
v 0.12298412777766399 -0.8127210140228271 -0.23718949063045613
v 0.13793106533869914 -0.05148899927735329 1.1370314766623295
v 0.5775610969243925 0.7083410024642944 1.175543468163184
v -0.6726808979333956 -0.04551500082015991 0.8673583676077641
v 0.13793106533869914 -0.05148899927735329 1.1370314766623295
v -0.058473868590744216 -0.47000300884246826 0.5736455132223881
v 1.3135330245672148 -0.7774140238761902 0.6168333698965824
v -0.9780238702119906 0.6341149806976318 0.592460553810767
v 0.5775610969243925 0.7083410024642944 1.175543468163184
v 0.12109513737544231 0.9012659788131714 -0.23626454575283162
v -1.057040913325699 0.6809399724006653 -0.23463757736904256
v -1.0591778590501864 0.6809830069541931 -1.0918245504639827
v -1.1674218609155733 -0.015484999865293503 0.13038043277042277
v -1.057040913325699 0.6809399724006653 -0.23463757736904256
v -0.9780238702119906 0.6341149806976318 0.592460553810767
v 0.12109513737544231 0.9012659788131714 -0.23626454575283162
v 1.3135330245672148 -0.7774140238761902 0.6168333698965824
v 0.5775610969243925 0.7083410024642944 1.175543468163184
v 0.13793106533869914 -0.05148899927735329 1.1370314766623295
v -1.0591778590501864 0.6809830069541931 -1.0918245504639827
v -1.057040913325699 0.6809399724006653 -0.23463757736904256
v 0.12109513737544231 0.9012659788131714 -0.23626454575283162
v -1.1674218609155733 -0.015484999865293503 0.13038043277042277
v -1.1943918897928316 -0.050554998219013214 -0.6634235571168148
v -0.33126287005558797 -0.7774180173873901 -1.6234055499575817
v -0.9780238702119906 0.6341149806976318 0.592460553810767
v -1.1674218609155733 -0.015484999865293503 0.13038043277042277
v -0.6726808979333956 -0.04551500082015991 0.8673583676077641
v -1.0591778590501864 0.6809830069541931 -1.0918245504639827
v -1.1943918897928316 -0.050554998219013214 -0.6634235571168148
v -1.1674218609155733 -0.015484999865293503 0.13038043277042277
v 0.12298412777766399 -0.8127210140228271 -0.23718949063045613
v -0.33126287005558797 -0.7774180173873901 -1.6234055499575817
v 1.310660080689041 -0.775160014629364 -1.0970975349686825
v 0.12298412777766399 -0.8127210140228271 -0.23718949063045613
v -1.1674218609155733 -0.015484999865293503 0.13038043277042277
v -0.33126287005558797 -0.7774180173873901 -1.6234055499575817
v 1.3135330245672148 -0.7774140238761902 0.6168333698965824
v 0.12298412777766399 -0.8127210140228271 -0.23718949063045613
v 1.310660080689041 -0.775160014629364 -1.0970975349686825
v 0.12298412777766399 -0.8127210140228271 -0.23718949063045613
v 1.3135330245672148 -0.7774140238761902 0.6168333698965824
v -0.058473868590744216 -0.47000300884246826 0.5736455132223881
vt 0.14085200428962708 0.47382599115371704
vt 0.33557000756263733 0.3759779930114746
vt 0.33587101101875305 0.5948200225830078
vt 0.6852520108222961 0.6688100099563599
vt 0.711430013179779 0.7439010143280029
vt 0.6033880114555359 0.7079579830169678
vt 0.0011680000461637974 0.07133699953556061
vt 0.1921679973602295 0.1882610023021698
vt 0.0008670000243000686 0.29977700114250183
vt 0.19889500737190247 0.7916669845581055
vt 0.18900099396705627 0.9990019798278809
vt 0.09841799736022949 0.9583050012588501
vt 0.5374469757080078 0.6097300052642822
vt 0.6852520108222961 0.6688100099563599
vt 0.6033880114555359 0.7079579830169678
vt 0.5501739978790283 0.1869809925556183
vt 0.42058899998664856 0.37424400448799133
vt 0.3598859906196594 0.1891690045595169
vt 0.1921679973602295 0.1882610023021698
vt 0.0011680000461637974 0.07133699953556061
vt 0.19588600099086761 0.0009980000322684646
vt 0.5276029706001282 0.4126180112361908
vt 0.533843994140625 0.5228570103645325
vt 0.44102200865745544 0.47420600056648254
vt 0.4207260012626648 0.0009980000322684646
vt 0.5501739978790283 0.1869809925556183
vt 0.3598859906196594 0.1891690045595169
vt 0.14148899912834167 0.6918399930000305
vt 0.14085200428962708 0.47382599115371704
vt 0.33587101101875305 0.5948200225830078
vt 0.19889500737190247 0.37424400448799133
vt 0.0008670000243000686 0.29977700114250183
vt 0.1921679973602295 0.1882610023021698
vt 0.42058899998664856 0.37424400448799133
vt 0.20257499814033508 0.3032020032405853
vt 0.3598859906196594 0.1891690045595169
vt 0.43634700775146484 0.580007016658783
vt 0.5338500142097473 0.6371060013771057
vt 0.33946800231933594 0.7079579830169678
vt 0.6852520108222961 0.6688100099563599
vt 0.5374469757080078 0.6097300052642822
vt 0.7094370126724243 0.5607389807701111
vt 0.09762100130319595 0.8502629995346069
vt 0.19889500737190247 0.7916669845581055
vt 0.09841799736022949 0.9583050012588501
vt 0.711430013179779 0.7439010143280029
vt 0.6852520108222961 0.6688100099563599
vt 0.8681190013885498 0.6745669841766357
vt 0.2133910059928894 0.07871399819850922
vt 0.4207260012626648 0.0009980000322684646
vt 0.3598859906196594 0.1891690045595169
vt 0.533843994140625 0.5228570103645325
vt 0.5338500142097473 0.6371060013771057
vt 0.44102200865745544 0.47420600056648254
vt 0.2028599977493286 0.1889529973268509
vt 0.2133910059928894 0.07871399819850922
vt 0.3598859906196594 0.1891690045595169
vt 0.0008670000243000686 0.6935740113258362
vt 0.19889500737190247 0.7916669845581055
vt 0.09762100130319595 0.8502629995346069
vt 0.20257499814033508 0.3032020032405853
vt 0.2028599977493286 0.1889529973268509
vt 0.3598859906196594 0.1891690045595169
vt 0.44102200865745544 0.47420600056648254
vt 0.43634700775146484 0.580007016658783
vt 0.33946800231933594 0.7079579830169678
vt 0.5276029706001282 0.4126180112361908
vt 0.44102200865745544 0.47420600056648254
vt 0.4370189905166626 0.3759779930114746
vt 0.5338500142097473 0.6371060013771057
vt 0.43634700775146484 0.580007016658783
vt 0.44102200865745544 0.47420600056648254
vt 0.7094370126724243 0.5607389807701111
vt 0.6488940119743347 0.3759779930114746
vt 0.8677359819412231 0.4461269974708557
vt 0.7094370126724243 0.5607389807701111
vt 0.5374469757080078 0.6097300052642822
vt 0.6488940119743347 0.3759779930114746
vt 0.8681190013885498 0.6745669841766357
vt 0.7094370126724243 0.5607389807701111
vt 0.8677359819412231 0.4461269974708557
vt 0.7094370126724243 0.5607389807701111
vt 0.8681190013885498 0.6745669841766357
vt 0.6852520108222961 0.6688100099563599
vn 0.30008893162539013 -0.18709795281123917 -0.9353828035461073
vn 0.30008893162539013 -0.18709795281123917 -0.9353828035461073
vn 0.30008893162539013 -0.18709795281123917 -0.9353828035461073
vn -0.21494414035237255 -0.7466224960784797 0.629566410220336
vn -0.21494414035237255 -0.7466224960784797 0.629566410220336
vn -0.21494414035237255 -0.7466224960784797 0.629566410220336
vn 0.9866563225152493 -0.162806055828386 -0.0018680006125924222
vn 0.9866563225152493 -0.162806055828386 -0.0018680006125924222
vn 0.9866563225152493 -0.162806055828386 -0.0018680006125924222
vn -0.351902045399966 0.21078402550663167 0.9119950904662482
vn -0.351902045399966 0.21078402550663167 0.9119950904662482
vn -0.351902045399966 0.21078402550663167 0.9119950904662482
vn -0.45322997761194284 -0.8528099951658793 0.25941800157092165
vn -0.45553282032354075 -0.8483726652390159 0.2697288832945582
vn -0.45593003885474076 -0.8475830781933827 0.27153402223320794
vn 0.16834494268394856 0.9809416517269871 -0.09702296728027078
vn 0.16834494268394856 0.9809416517269871 -0.09702296728027078
vn 0.16834494268394856 0.9809416517269871 -0.09702296728027078
vn 0.8067151642217452 0.20519503362875907 -0.5541711305984597
vn 0.8067151642217452 0.20519503362875907 -0.5541711305984597
vn 0.8067151642217452 0.20519503362875907 -0.5541711305984597
vn -0.9722941109903607 0.20899203406184388 0.10472101714630817
vn -0.9722941109903607 0.20899203406184388 0.10472101714630817
vn -0.9722941109903607 0.20899203406184388 0.10472101714630817
vn 0.16661106200467463 0.9827373652027968 0.08042403280076975
vn 0.16661106200467463 0.9827373652027968 0.08042403280076975
vn 0.16661106200467463 0.9827373652027968 0.08042403280076975
vn -0.3047889051431655 0.18818393039130454 -0.9336436855910883
vn -0.3047889051431655 0.18818393039130454 -0.9336436855910883
vn -0.3047889051431655 0.18818393039130454 -0.9336436855910883
vn 0.8087980722275763 0.19155400853903112 0.5560150539091411
vn 0.8087980722275763 0.19155400853903112 0.5560150539091411
vn 0.8087980722275763 0.19155400853903112 0.5560150539091411
vn -0.05889998527564323 0.9833467751560334 -0.17192996110264902
vn -0.05889998527564323 0.9833467751560334 -0.17192996110264902
vn -0.05889998527564323 0.9833467751560334 -0.17192996110264902
vn -0.7970091670363095 -0.18867604125734783 -0.5737401320419757
vn -0.7970091670363095 -0.18867604125734783 -0.5737401320419757
vn -0.7970091670363095 -0.18867604125734783 -0.5737401320419757
vn -0.45553282032354075 -0.8483726652390159 0.2697288832945582
vn -0.45322997761194284 -0.8528099951658793 0.25941800157092165
vn -0.4531587907363345 -0.8529436142011977 0.2591028779689282
vn -0.31198911855324357 0.13283105372315637 0.940754325566014
vn -0.31198911855324357 0.13283105372315637 0.940754325566014
vn -0.31198911855324357 0.13283105372315637 0.940754325566014
vn -0.18903704962030107 -0.755579212378295 0.6271882075522845
vn -0.18903704962030107 -0.755579212378295 0.6271882075522845
vn -0.18903704962030107 -0.755579212378295 0.6271882075522845
vn -0.11025603621544813 0.9793473002480652 0.16947705442001199
vn -0.11025603621544813 0.9793473002480652 0.16947705442001199
vn -0.11025603621544813 0.9793473002480652 0.16947705442001199
vn -0.9874673584008543 0.15780405611895318 0.0024690008596585373
vn -0.9874673584008543 0.15780405611895318 0.0024690008596585373
vn -0.9874673584008543 0.15780405611895318 0.0024690008596585373
vn -0.1832370055296399 0.9803540336889722 0.07300800253596983
vn -0.1832370055296399 0.9803540336889722 0.07300800253596983
vn -0.1832370055296399 0.9803540336889722 0.07300800253596983
vn 0.28339209827377887 -0.21138006914480587 0.9354182941360094
vn 0.28339209827377887 -0.21138006914480587 0.9354182941360094
vn 0.28339209827377887 -0.21138006914480587 0.9354182941360094
vn -0.18382401528173808 0.9829590395034967 0.0005080000611086208
vn -0.18382401528173808 0.9829590395034967 0.0005080000611086208
vn -0.18382401528173808 0.9829590395034967 0.0005080000611086208
vn -0.606213075841381 -0.7933531549554981 0.05564600795285714
vn -0.606213075841381 -0.7933531549554981 0.05564600795285714
vn -0.606213075841381 -0.7933531549554981 0.05564600795285714
vn -0.8238102077707878 -0.14888204255871812 0.5469651533472634
vn -0.8238102077707878 -0.14888204255871812 0.5469651533472634
vn -0.8238102077707878 -0.14888204255871812 0.5469651533472634
vn -0.9803635814566488 0.19564990795451773 0.024664988767111824
vn -0.9803635814566488 0.19564990795451773 0.024664988767111824
vn -0.9803635814566488 0.19564990795451773 0.024664988767111824
vn 0.010653002878053427 -0.9995242368518861 -0.02894500777914766
vn 0.010653002878053427 -0.9995242368518861 -0.02894500777914766
vn 0.010653002878053427 -0.9995242368518861 -0.02894500777914766
vn -0.4914922221584398 -0.8596914068125029 0.13916206598961717
vn -0.4914922221584398 -0.8596914068125029 0.13916206598961717
vn -0.4914922221584398 -0.8596914068125029 0.13916206598961717
vn 0.03062100324020693 -0.9995301350809963 -0.0013650001935627514
vn 0.03062100324020693 -0.9995301350809963 -0.0013650001935627514
vn 0.03062100324020693 -0.9995301350809963 -0.0013650001935627514
vn -0.21585211341300897 -0.9157754513725954 0.3387671586775445
vn -0.21585211341300897 -0.9157754513725954 0.3387671586775445
vn -0.21585211341300897 -0.9157754513725954 0.3387671586775445
f 1/1/1 2/2/2 3/3/3
f 4/4/4 5/5/5 6/6/6
f 7/7/7 8/8/8 9/9/9
f 10/10/10 11/11/11 12/12/12
f 13/13/13 14/14/14 15/15/15
f 16/16/16 17/17/17 18/18/18
f 19/19/19 20/20/20 21/21/21
f 22/22/22 23/23/23 24/24/24
f 25/25/25 26/26/26 27/27/27
f 28/28/28 29/29/29 30/30/30
f 31/31/31 32/32/32 33/33/33
f 34/34/34 35/35/35 36/36/36
f 37/37/37 38/38/38 39/39/39
f 40/40/40 41/41/41 42/42/42
f 43/43/43 44/44/44 45/45/45
f 46/46/46 47/47/47 48/48/48
f 49/49/49 50/50/50 51/51/51
f 52/52/52 53/53/53 54/54/54
f 55/55/55 56/56/56 57/57/57
f 58/58/58 59/59/59 60/60/60
f 61/61/61 62/62/62 63/63/63
f 64/64/64 65/65/65 66/66/66
f 67/67/67 68/68/68 69/69/69
f 70/70/70 71/71/71 72/72/72
f 73/73/73 74/74/74 75/75/75
f 76/76/76 77/77/77 78/78/78
f 79/79/79 80/80/80 81/81/81
f 82/82/82 83/83/83 84/84/84
